<svg width="30" height="30" viewBox="0 0 30 30" fill="none" xmlns="http://www.w3.org/2000/svg">
<path d="M11.4398 7.00317C11.9672 6.47583 12.832 6.47583 13.3594 7.00317L20.0672 13.7321C20.5805 14.2454 20.5945 15.075 20.1094 15.6024L13.5 22.2329C13.2328 22.5 12.8883 22.6336 12.5367 22.6336C12.1922 22.6336 11.8406 22.5 11.5805 22.2399C11.0531 21.7125 11.0461 20.8547 11.5805 20.3204L17.1984 14.618L11.4398 8.91567C10.9055 8.39536 10.9055 7.53755 11.4398 7.00317Z" fill="white"/>
<path d="M0 15C0 23.2861 6.71394 30 15 30C23.2861 30 30 23.2861 30 15C30 6.71394 23.2861 0 15 0C6.71394 0 0 6.71394 0 15ZM2.30769 15C2.30769 11.6106 3.6274 8.42308 6.02885 6.02885C8.42308 3.6274 11.6106 2.30769 15 2.30769C18.3894 2.30769 21.5769 3.6274 23.9712 6.02885C26.3726 8.42308 27.6923 11.6106 27.6923 15C27.6923 18.3894 26.3726 21.5769 23.9712 23.9712C21.5769 26.3726 18.3894 27.6923 15 27.6923C11.6106 27.6923 8.42308 26.3726 6.02885 23.9712C3.6274 21.5769 2.30769 18.3894 2.30769 15Z" fill="white"/>
</svg>
