<svg width="24" height="24" viewBox="0 0 24 24" fill="none" xmlns="http://www.w3.org/2000/svg">
<path d="M9.23328 5.67786C9.65458 5.25655 10.3455 5.25655 10.7668 5.67786L16.1258 11.0537C16.5359 11.4638 16.5471 12.1266 16.1595 12.5479L10.8792 17.8451C10.6657 18.0586 10.3905 18.1653 10.1096 18.1653C9.83434 18.1653 9.55347 18.0586 9.34563 17.8507C8.92432 17.4294 8.9187 16.7441 9.34563 16.3172L13.8339 11.7615L9.23328 7.20579C8.80636 6.7901 8.80636 6.10478 9.23328 5.67786Z" fill="#FFF400"/>
<path d="M0.09375 11.7671C0.09375 18.2215 5.32354 23.4513 11.7779 23.4513C18.2323 23.4513 23.4621 18.2215 23.4621 11.7671C23.4621 5.31274 18.2323 0.0829468 11.7779 0.0829468C5.32354 0.0829468 0.09375 5.31274 0.09375 11.7671ZM1.89132 11.7671C1.89132 9.12695 2.9193 6.64406 4.78989 4.77909C6.65486 2.90849 9.13775 1.88051 11.7779 1.88051C14.4181 1.88051 16.901 2.90849 18.766 4.77909C20.6366 6.64406 21.6645 9.12695 21.6645 11.7671C21.6645 14.4073 20.6366 16.8902 18.766 18.7552C16.901 20.6258 14.4181 21.6537 11.7779 21.6537C9.13775 21.6537 6.65486 20.6258 4.78989 18.7552C2.9193 16.8902 1.89132 14.4073 1.89132 11.7671Z" fill="#FFF400"/>
</svg>
